<svg width="1200" height="630" viewBox="0 0 1200 630" fill="none" xmlns="http://www.w3.org/2000/svg">
<rect width="1200" height="630" fill="black"/>
<path d="M290.58 380V248.6H315.06L353.4 357.86C353.16 354.38 352.86 350.24 352.5 345.44C352.14 340.64 351.84 335.66 351.6 330.5C351.48 325.34 351.42 320.66 351.42 316.46V248.6H369.42V380H344.94L306.78 270.74C307.02 273.86 307.26 277.76 307.5 282.44C307.86 287.12 308.1 291.98 308.22 297.02C308.46 302.06 308.58 306.74 308.58 311.06V380H290.58ZM391.67 380L426.41 328.88L393.83 281H416.15L433.61 308.36C434.45 309.8 435.29 311.36 436.13 313.04C436.97 314.6 437.63 315.92 438.11 317C438.47 315.92 439.07 314.6 439.91 313.04C440.75 311.36 441.59 309.8 442.43 308.36L459.89 281H482.21L449.63 329.06L484.19 380H461.87L442.61 350.3C441.77 348.86 440.93 347.24 440.09 345.44C439.25 343.64 438.59 342.2 438.11 341.12C437.63 342.2 436.91 343.64 435.95 345.44C435.11 347.24 434.21 348.86 433.25 350.3L413.81 380H391.67ZM545.859 381.8C537.699 381.8 530.619 380.3 524.619 377.3C518.739 374.18 514.179 369.74 510.939 363.98C507.819 358.1 506.259 351.26 506.259 343.46V285.14C506.259 277.22 507.819 270.38 510.939 264.62C514.179 258.86 518.739 254.48 524.619 251.48C530.619 248.36 537.699 246.8 545.859 246.8C554.019 246.8 561.039 248.36 566.919 251.48C572.919 254.48 577.479 258.86 580.599 264.62C583.839 270.38 585.459 277.16 585.459 284.96V343.46C585.459 351.26 583.839 358.1 580.599 363.98C577.479 369.74 572.919 374.18 566.919 377.3C561.039 380.3 554.019 381.8 545.859 381.8ZM545.859 364.52C552.459 364.52 557.439 362.72 560.799 359.12C564.279 355.4 566.019 350.18 566.019 343.46V285.14C566.019 278.3 564.279 273.08 560.799 269.48C557.439 265.88 552.459 264.08 545.859 264.08C539.379 264.08 534.399 265.88 530.919 269.48C527.439 273.08 525.699 278.3 525.699 285.14V343.46C525.699 350.18 527.439 355.4 530.919 359.12C534.399 362.72 539.379 364.52 545.859 364.52ZM654.509 381.8C646.349 381.8 639.149 380.3 632.909 377.3C626.789 374.18 622.049 369.74 618.689 363.98C615.449 358.1 613.829 351.26 613.829 343.46V317.54C613.829 309.62 615.449 302.78 618.689 297.02C622.049 291.26 626.789 286.88 632.909 283.88C639.149 280.76 646.349 279.2 654.509 279.2C666.389 279.2 675.929 282.32 683.129 288.56C690.329 294.8 694.109 303.32 694.469 314.12H675.029C674.669 308.48 672.689 304.1 669.089 300.98C665.489 297.86 660.629 296.3 654.509 296.3C647.909 296.3 642.689 298.16 638.849 301.88C635.009 305.48 633.089 310.64 633.089 317.36V343.46C633.089 350.18 635.009 355.4 638.849 359.12C642.689 362.84 647.909 364.7 654.509 364.7C660.629 364.7 665.489 363.14 669.089 360.02C672.689 356.9 674.669 352.52 675.029 346.88H694.469C694.109 357.68 690.329 366.2 683.129 372.44C675.929 378.68 666.389 381.8 654.509 381.8ZM772.519 380C763.519 380 756.499 377.54 751.459 372.62C746.419 367.7 743.899 360.86 743.899 352.1V298.64H716.539V281H743.899V253.1H763.339V281H802.039V298.64H763.339V352.1C763.339 358.94 766.639 362.36 773.239 362.36H800.239V380H772.519ZM869.648 381.62C861.488 381.62 854.408 380.06 848.408 376.94C842.408 373.82 837.788 369.38 834.548 363.62C831.308 357.86 829.688 351.08 829.688 343.28V317.72C829.688 309.8 831.308 303.02 834.548 297.38C837.788 291.62 842.408 287.18 848.408 284.06C854.408 280.94 861.488 279.38 869.648 279.38C877.808 279.38 884.888 280.94 890.888 284.06C896.888 287.18 901.508 291.62 904.748 297.38C907.988 303.02 909.608 309.8 909.608 317.72V343.28C909.608 351.08 907.988 357.86 904.748 363.62C901.508 369.38 896.888 373.82 890.888 376.94C884.888 380.06 877.808 381.62 869.648 381.62ZM869.648 364.52C876.248 364.52 881.348 362.72 884.948 359.12C888.548 355.4 890.348 350.12 890.348 343.28V317.72C890.348 310.76 888.548 305.48 884.948 301.88C881.348 298.28 876.248 296.48 869.648 296.48C863.168 296.48 858.068 298.28 854.348 301.88C850.748 305.48 848.948 310.76 848.948 317.72V343.28C848.948 350.12 850.748 355.4 854.348 359.12C858.068 362.72 863.168 364.52 869.648 364.52Z" fill="white"/>
<path d="M290.58 380H288.58V382H290.58V380ZM290.58 248.6V246.6H288.58V248.6H290.58ZM315.06 248.6L316.947 247.938L316.478 246.6H315.06V248.6ZM353.4 357.86L351.513 358.522L355.395 357.722L353.4 357.86ZM352.5 345.44L350.506 345.59V345.59L352.5 345.44ZM351.6 330.5L349.601 330.546L349.601 330.57L349.602 330.593L351.6 330.5ZM351.42 248.6V246.6H349.42V248.6H351.42ZM369.42 248.6H371.42V246.6H369.42V248.6ZM369.42 380V382H371.42V380H369.42ZM344.94 380L343.052 380.659L343.52 382H344.94V380ZM306.78 270.74L308.668 270.081L304.786 270.893L306.78 270.74ZM307.5 282.44L305.503 282.542L305.504 282.568L305.506 282.593L307.5 282.44ZM308.22 297.02L306.221 297.068L306.221 297.091L306.222 297.115L308.22 297.02ZM308.58 380V382H310.58V380H308.58ZM290.58 380H292.58V248.6H290.58H288.58V380H290.58ZM290.58 248.6V250.6H315.06V248.6V246.6H290.58V248.6ZM315.06 248.6L313.173 249.262L351.513 358.522L353.4 357.86L355.287 357.198L316.947 247.938L315.06 248.6ZM353.4 357.86L355.395 357.722C355.155 354.237 354.855 350.093 354.494 345.29L352.5 345.44L350.506 345.59C350.865 350.387 351.165 354.523 351.405 357.998L353.4 357.86ZM352.5 345.44L354.494 345.29C354.136 340.511 353.837 335.55 353.598 330.407L351.6 330.5L349.602 330.593C349.843 335.77 350.144 340.769 350.506 345.59L352.5 345.44ZM351.6 330.5L353.599 330.453C353.48 325.306 353.42 320.641 353.42 316.46H351.42H349.42C349.42 320.679 349.48 325.374 349.601 330.546L351.6 330.5ZM351.42 316.46H353.42V248.6H351.42H349.42V316.46H351.42ZM351.42 248.6V250.6H369.42V248.6V246.6H351.42V248.6ZM369.42 248.6H367.42V380H369.42H371.42V248.6H369.42ZM369.42 380V378H344.94V380V382H369.42V380ZM344.94 380L346.828 379.341L308.668 270.081L306.78 270.74L304.892 271.399L343.052 380.659L344.94 380ZM306.78 270.74L304.786 270.893C305.024 273.99 305.263 277.872 305.503 282.542L307.5 282.44L309.497 282.338C309.257 277.648 309.016 273.73 308.774 270.587L306.78 270.74ZM307.5 282.44L305.506 282.593C305.863 287.236 306.101 292.06 306.221 297.068L308.22 297.02L310.219 296.972C310.099 291.9 309.857 287.004 309.494 282.287L307.5 282.44ZM308.22 297.02L306.222 297.115C306.461 302.129 306.58 306.776 306.58 311.06H308.58H310.58C310.58 306.704 310.459 301.991 310.218 296.925L308.22 297.02ZM308.58 311.06H306.58V380H308.58H310.58V311.06H308.58ZM308.58 380V378H290.58V380V382H308.58V380ZM391.67 380L390.016 378.876L387.892 382H391.67V380ZM426.41 328.88L428.064 330.004L428.828 328.879L428.063 327.755L426.41 328.88ZM393.83 281V279H390.05L392.176 282.125L393.83 281ZM416.15 281L417.836 279.924L417.246 279H416.15V281ZM433.61 308.36L435.337 307.352L435.317 307.318L435.296 307.284L433.61 308.36ZM436.13 313.04L434.341 313.934L434.354 313.962L434.369 313.988L436.13 313.04ZM438.11 317L436.282 317.812L438.376 322.524L440.007 317.632L438.11 317ZM439.91 313.04L441.671 313.988L441.685 313.962L441.699 313.934L439.91 313.04ZM442.43 308.36L440.744 307.284L440.722 307.318L440.702 307.352L442.43 308.36ZM459.89 281V279H458.793L458.204 279.924L459.89 281ZM482.21 281L483.865 282.122L485.982 279H482.21V281ZM449.63 329.06L447.974 327.938L447.213 329.06L447.975 330.183L449.63 329.06ZM484.19 380V382H487.963L485.845 378.877L484.19 380ZM461.87 380L460.192 381.088L460.783 382H461.87V380ZM442.61 350.3L440.882 351.308L440.906 351.349L440.932 351.388L442.61 350.3ZM440.09 345.44L438.277 346.286V346.286L440.09 345.44ZM438.11 341.12L439.937 340.308L438.11 336.196L436.282 340.308L438.11 341.12ZM435.95 345.44L434.185 344.499L434.16 344.546L434.137 344.594L435.95 345.44ZM433.25 350.3L431.586 349.191L431.581 349.198L431.576 349.205L433.25 350.3ZM413.81 380V382H414.891L415.483 381.095L413.81 380ZM391.67 380L393.324 381.124L428.064 330.004L426.41 328.88L424.756 327.756L390.016 378.876L391.67 380ZM426.41 328.88L428.063 327.755L395.483 279.875L393.83 281L392.176 282.125L424.756 330.005L426.41 328.88ZM393.83 281V283H416.15V281V279H393.83V281ZM416.15 281L414.464 282.076L431.924 309.436L433.61 308.36L435.296 307.284L417.836 279.924L416.15 281ZM433.61 308.36L431.882 309.368C432.698 310.766 433.518 312.288 434.341 313.934L436.13 313.04L437.919 312.146C437.062 310.432 436.201 308.834 435.337 307.352L433.61 308.36ZM436.13 313.04L434.369 313.988C435.195 315.523 435.83 316.795 436.282 317.812L438.11 317L439.937 316.188C439.429 315.045 438.744 313.677 437.891 312.092L436.13 313.04ZM438.11 317L440.007 317.632C440.317 316.704 440.859 315.496 441.671 313.988L439.91 313.04L438.149 312.092C437.281 313.704 436.623 315.136 436.212 316.368L438.11 317ZM439.91 313.04L441.699 313.934C442.522 312.288 443.341 310.766 444.157 309.368L442.43 308.36L440.702 307.352C439.838 308.834 438.978 310.432 438.121 312.146L439.91 313.04ZM442.43 308.36L444.116 309.436L461.576 282.076L459.89 281L458.204 279.924L440.744 307.284L442.43 308.36ZM459.89 281V283H482.21V281V279H459.89V281ZM482.21 281L480.554 279.878L447.974 327.938L449.63 329.06L451.285 330.182L483.865 282.122L482.21 281ZM449.63 329.06L447.975 330.183L482.535 381.123L484.19 380L485.845 378.877L451.285 327.937L449.63 329.06ZM484.19 380V378H461.87V380V382H484.19V380ZM461.87 380L463.548 378.912L444.288 349.212L442.61 350.3L440.932 351.388L460.192 381.088L461.87 380ZM442.61 350.3L444.337 349.292C443.533 347.914 442.721 346.349 441.902 344.594L440.09 345.44L438.277 346.286C439.138 348.131 440.006 349.806 440.882 351.308L442.61 350.3ZM440.09 345.44L441.902 344.594C441.064 342.799 440.41 341.372 439.937 340.308L438.11 341.12L436.282 341.932C436.769 343.028 437.435 344.481 438.277 346.286L440.09 345.44ZM438.11 341.12L436.282 340.308C435.83 341.324 435.136 342.716 434.185 344.499L435.95 345.44L437.714 346.381C438.683 344.564 439.429 343.076 439.937 341.932L438.11 341.12ZM435.95 345.44L434.137 344.594C433.334 346.316 432.482 347.846 431.586 349.191L433.25 350.3L434.914 351.409C435.937 349.874 436.885 348.164 437.762 346.286L435.95 345.44ZM433.25 350.3L431.576 349.205L412.136 378.905L413.81 380L415.483 381.095L434.923 351.395L433.25 350.3ZM413.81 380V378H391.67V380V382H413.81V380ZM524.619 377.3L523.682 379.067L523.703 379.078L523.725 379.089L524.619 377.3ZM510.939 363.98L509.173 364.917L509.184 364.939L509.196 364.961L510.939 363.98ZM510.939 264.62L509.196 263.639L509.188 263.653L509.181 263.667L510.939 264.62ZM524.619 251.48L525.528 253.262L525.535 253.258L525.542 253.254L524.619 251.48ZM566.919 251.48L565.982 253.247L566.003 253.258L566.025 253.269L566.919 251.48ZM580.599 264.62L578.841 265.573L578.848 265.587L578.856 265.601L580.599 264.62ZM580.599 363.98L578.848 363.015L578.844 363.021L578.841 363.027L580.599 363.98ZM566.919 377.3L567.828 379.082L567.835 379.078L567.842 379.074L566.919 377.3ZM560.799 359.12L559.339 357.754L559.337 357.755L560.799 359.12ZM560.799 269.48L559.337 270.845L559.349 270.857L559.361 270.87L560.799 269.48ZM530.919 269.48L532.357 270.87V270.87L530.919 269.48ZM530.919 359.12L529.459 360.486L529.47 360.498L529.481 360.51L530.919 359.12ZM545.859 381.8V379.8C537.944 379.8 531.182 378.345 525.514 375.511L524.619 377.3L523.725 379.089C530.056 382.255 537.455 383.8 545.859 383.8V381.8ZM524.619 377.3L525.557 375.533C520.013 372.591 515.733 368.423 512.683 362.999L510.939 363.98L509.196 364.961C512.625 371.057 517.466 375.769 523.682 379.067L524.619 377.3ZM510.939 363.98L512.706 363.043C509.764 357.497 508.259 350.989 508.259 343.46H506.259H504.259C504.259 351.531 505.875 358.703 509.173 364.917L510.939 363.98ZM506.259 343.46H508.259V285.14H506.259H504.259V343.46H506.259ZM506.259 285.14H508.259C508.259 277.484 509.766 270.985 512.698 265.573L510.939 264.62L509.181 263.667C505.872 269.775 504.259 276.956 504.259 285.14H506.259ZM510.939 264.62L512.683 265.601C515.73 260.183 520 256.082 525.528 253.262L524.619 251.48L523.71 249.698C517.479 252.878 512.629 257.537 509.196 263.639L510.939 264.62ZM524.619 251.48L525.542 253.254C531.204 250.31 537.955 248.8 545.859 248.8V246.8V244.8C537.444 244.8 530.035 246.41 523.697 249.706L524.619 251.48ZM545.859 246.8V248.8C553.765 248.8 560.449 250.311 565.982 253.247L566.919 251.48L567.857 249.713C561.63 246.409 554.273 244.8 545.859 244.8V246.8ZM566.919 251.48L566.025 253.269C571.667 256.09 575.921 260.183 578.841 265.573L580.599 264.62L582.358 263.667C579.038 257.537 574.171 252.87 567.814 249.691L566.919 251.48ZM580.599 264.62L578.856 265.601C581.9 271.011 583.459 277.441 583.459 284.96H585.459H587.459C587.459 276.879 585.779 269.749 582.343 263.639L580.599 264.62ZM585.459 284.96H583.459V343.46H585.459H587.459V284.96H585.459ZM585.459 343.46H583.459C583.459 350.977 581.9 357.475 578.848 363.015L580.599 363.98L582.351 364.945C585.779 358.725 587.459 351.543 587.459 343.46H585.459ZM580.599 363.98L578.841 363.027C575.918 368.424 571.654 372.584 565.997 375.526L566.919 377.3L567.842 379.074C574.184 375.776 579.041 371.056 582.358 364.933L580.599 363.98ZM566.919 377.3L566.01 375.518C560.471 378.345 553.777 379.8 545.859 379.8V381.8V383.8C554.262 383.8 561.608 382.255 567.828 379.082L566.919 377.3ZM545.859 364.52V366.52C552.817 366.52 558.407 364.614 562.261 360.485L560.799 359.12L559.337 357.755C556.472 360.826 552.102 362.52 545.859 362.52V364.52ZM560.799 359.12L562.26 360.486C566.186 356.29 568.019 350.521 568.019 343.46H566.019H564.019C564.019 349.839 562.373 354.51 559.339 357.754L560.799 359.12ZM566.019 343.46H568.019V285.14H566.019H564.019V343.46H566.019ZM566.019 285.14H568.019C568.019 277.975 566.193 272.182 562.237 268.09L560.799 269.48L559.361 270.87C562.366 273.978 564.019 278.625 564.019 285.14H566.019ZM560.799 269.48L562.261 268.115C558.407 263.986 552.817 262.08 545.859 262.08V264.08V266.08C552.102 266.08 556.472 267.774 559.337 270.845L560.799 269.48ZM545.859 264.08V262.08C539.005 262.08 533.441 263.994 529.481 268.09L530.919 269.48L532.357 270.87C535.358 267.766 539.754 266.08 545.859 266.08V264.08ZM530.919 269.48L529.481 268.09C525.526 272.182 523.699 277.975 523.699 285.14H525.699H527.699C527.699 278.625 529.353 273.978 532.357 270.87L530.919 269.48ZM525.699 285.14H523.699V343.46H525.699H527.699V285.14H525.699ZM525.699 343.46H523.699C523.699 350.521 525.533 356.29 529.459 360.486L530.919 359.12L532.38 357.754C529.346 354.51 527.699 349.839 527.699 343.46H525.699ZM530.919 359.12L529.481 360.51C533.441 364.606 539.005 366.52 545.859 366.52V364.52V362.52C539.754 362.52 535.358 360.834 532.357 357.73L530.919 359.12ZM632.909 377.3L632.001 379.082L632.021 379.092L632.042 379.103L632.909 377.3ZM618.689 363.98L616.937 364.945L616.949 364.967L616.962 364.988L618.689 363.98ZM618.689 297.02L616.962 296.012L616.954 296.026L616.946 296.039L618.689 297.02ZM632.909 283.88L633.789 285.676L633.796 285.672L633.803 285.669L632.909 283.88ZM683.129 288.56L684.439 287.049V287.049L683.129 288.56ZM694.469 314.12V316.12H696.537L696.468 314.053L694.469 314.12ZM675.029 314.12L673.033 314.247L673.153 316.12H675.029V314.12ZM669.089 300.98L667.779 302.491V302.491L669.089 300.98ZM638.849 301.88L640.217 303.339L640.229 303.328L640.241 303.316L638.849 301.88ZM638.849 359.12L640.241 357.684V357.684L638.849 359.12ZM669.089 360.02L667.779 358.509V358.509L669.089 360.02ZM675.029 346.88V344.88H673.153L673.033 346.753L675.029 346.88ZM694.469 346.88L696.468 346.947L696.537 344.88H694.469V346.88ZM683.129 372.44L684.439 373.951V373.951L683.129 372.44ZM654.509 381.8V379.8C646.596 379.8 639.701 378.346 633.776 375.497L632.909 377.3L632.042 379.103C638.597 382.254 646.102 383.8 654.509 383.8V381.8ZM632.909 377.3L633.817 375.518C628.028 372.567 623.577 368.391 620.417 362.972L618.689 363.98L616.962 364.988C620.521 371.089 625.55 375.793 632.001 379.082L632.909 377.3ZM618.689 363.98L620.441 363.015C617.388 357.475 615.829 350.977 615.829 343.46H613.829H611.829C611.829 351.543 613.51 358.725 616.937 364.945L618.689 363.98ZM613.829 343.46H615.829V317.54H613.829H611.829V343.46H613.829ZM613.829 317.54H615.829C615.829 309.895 617.391 303.407 620.432 298.001L618.689 297.02L616.946 296.039C613.507 302.153 611.829 309.345 611.829 317.54H613.829ZM618.689 297.02L620.417 298.028C623.573 292.616 628.015 288.506 633.789 285.676L632.909 283.88L632.029 282.084C625.563 285.254 620.525 289.904 616.962 296.012L618.689 297.02ZM632.909 283.88L633.803 285.669C639.722 282.709 646.607 281.2 654.509 281.2V279.2V277.2C646.091 277.2 638.576 278.811 632.015 282.091L632.909 283.88ZM654.509 279.2V281.2C666.031 281.2 675.066 284.219 681.819 290.071L683.129 288.56L684.439 287.049C676.792 280.421 666.747 277.2 654.509 277.2V279.2ZM683.129 288.56L681.819 290.071C688.54 295.896 692.126 303.861 692.47 314.187L694.469 314.12L696.468 314.053C696.092 302.779 692.118 293.704 684.439 287.049L683.129 288.56ZM694.469 314.12V312.12H675.029V314.12V316.12H694.469V314.12ZM675.029 314.12L677.025 313.993C676.638 307.925 674.478 303.004 670.399 299.469L669.089 300.98L667.779 302.491C670.9 305.196 672.7 309.035 673.033 314.247L675.029 314.12ZM669.089 300.98L670.399 299.469C666.342 295.952 660.97 294.3 654.509 294.3V296.3V298.3C660.288 298.3 664.636 299.768 667.779 302.491L669.089 300.98ZM654.509 296.3V294.3C647.518 294.3 641.754 296.282 637.457 300.444L638.849 301.88L640.241 303.316C643.624 300.038 648.3 298.3 654.509 298.3V296.3ZM638.849 301.88L637.481 300.421C633.133 304.497 631.089 310.249 631.089 317.36H633.089H635.089C635.089 311.031 636.885 306.463 640.217 303.339L638.849 301.88ZM633.089 317.36H631.089V343.46H633.089H635.089V317.36H633.089ZM633.089 343.46H631.089C631.089 350.574 633.134 356.368 637.457 360.556L638.849 359.12L640.241 357.684C636.884 354.432 635.089 349.786 635.089 343.46H633.089ZM638.849 359.12L637.457 360.556C641.754 364.718 647.518 366.7 654.509 366.7V364.7V362.7C648.3 362.7 643.624 360.962 640.241 357.684L638.849 359.12ZM654.509 364.7V366.7C660.97 366.7 666.342 365.048 670.399 361.531L669.089 360.02L667.779 358.509C664.636 361.232 660.288 362.7 654.509 362.7V364.7ZM669.089 360.02L670.399 361.531C674.478 357.996 676.638 353.075 677.025 347.007L675.029 346.88L673.033 346.753C672.7 351.965 670.9 355.804 667.779 358.509L669.089 360.02ZM675.029 346.88V348.88H694.469V346.88V344.88H675.029V346.88ZM694.469 346.88L692.47 346.813C692.126 357.139 688.54 365.104 681.819 370.929L683.129 372.44L684.439 373.951C692.118 367.296 696.092 358.221 696.468 346.947L694.469 346.88ZM683.129 372.44L681.819 370.929C675.066 376.781 666.031 379.8 654.509 379.8V381.8V383.8C666.747 383.8 676.792 380.579 684.439 373.951L683.129 372.44ZM743.899 298.64H745.899V296.64H743.899V298.64ZM716.539 298.64H714.539V300.64H716.539V298.64ZM716.539 281V279H714.539V281H716.539ZM743.899 281V283H745.899V281H743.899ZM743.899 253.1V251.1H741.899V253.1H743.899ZM763.339 253.1H765.339V251.1H763.339V253.1ZM763.339 281H761.339V283H763.339V281ZM802.039 281H804.039V279H802.039V281ZM802.039 298.64V300.64H804.039V298.64H802.039ZM763.339 298.64V296.64H761.339V298.64H763.339ZM800.239 362.36H802.239V360.36H800.239V362.36ZM800.239 380V382H802.239V380H800.239ZM772.519 380V378C763.889 378 757.426 375.65 752.856 371.189L751.459 372.62L750.062 374.051C755.571 379.43 763.148 382 772.519 382V380ZM751.459 372.62L752.856 371.189C748.291 366.733 745.899 360.461 745.899 352.1H743.899H741.899C741.899 361.259 744.547 368.667 750.062 374.051L751.459 372.62ZM743.899 352.1H745.899V298.64H743.899H741.899V352.1H743.899ZM743.899 298.64V296.64H716.539V298.64V300.64H743.899V298.64ZM716.539 298.64H718.539V281H716.539H714.539V298.64H716.539ZM716.539 281V283H743.899V281V279H716.539V281ZM743.899 281H745.899V253.1H743.899H741.899V281H743.899ZM743.899 253.1V255.1H763.339V253.1V251.1H743.899V253.1ZM763.339 253.1H761.339V281H763.339H765.339V253.1H763.339ZM763.339 281V283H802.039V281V279H763.339V281ZM802.039 281H800.039V298.64H802.039H804.039V281H802.039ZM802.039 298.64V296.64H763.339V298.64V300.64H802.039V298.64ZM763.339 298.64H761.339V352.1H763.339H765.339V298.64H763.339ZM763.339 352.1H761.339C761.339 355.811 762.233 358.964 764.375 361.184C766.529 363.416 769.612 364.36 773.239 364.36V362.36V360.36C770.266 360.36 768.399 359.594 767.253 358.406C766.095 357.206 765.339 355.229 765.339 352.1H763.339ZM773.239 362.36V364.36H800.239V362.36V360.36H773.239V362.36ZM800.239 362.36H798.239V380H800.239H802.239V362.36H800.239ZM800.239 380V378H772.519V380V382H800.239V380ZM848.408 376.94L849.331 375.166V375.166L848.408 376.94ZM834.548 363.62L836.292 362.639V362.639L834.548 363.62ZM834.548 297.38L836.283 298.376L836.287 298.368L836.292 298.361L834.548 297.38ZM848.408 284.06L847.486 282.286V282.286L848.408 284.06ZM890.888 284.06L891.811 282.286V282.286L890.888 284.06ZM904.748 297.38L903.005 298.361L903.01 298.368L903.014 298.376L904.748 297.38ZM904.748 363.62L906.492 364.601V364.601L904.748 363.62ZM890.888 376.94L889.966 375.166V375.166L890.888 376.94ZM884.948 359.12L886.363 360.534L886.374 360.523L886.386 360.511L884.948 359.12ZM854.348 301.88L852.958 300.443L852.946 300.454L852.934 300.466L854.348 301.88ZM854.348 359.12L852.911 360.511L852.934 360.534L852.958 360.557L854.348 359.12ZM869.648 381.62V379.62C861.744 379.62 854.993 378.11 849.331 375.166L848.408 376.94L847.486 378.714C853.824 382.01 861.233 383.62 869.648 383.62V381.62ZM848.408 376.94L849.331 375.166C843.667 372.22 839.336 368.052 836.292 362.639L834.548 363.62L832.805 364.601C836.24 370.708 841.149 375.42 847.486 378.714L848.408 376.94ZM834.548 363.62L836.292 362.639C833.248 357.229 831.688 350.799 831.688 343.28H829.688H827.688C827.688 351.361 829.369 358.491 832.805 364.601L834.548 363.62ZM829.688 343.28H831.688V317.72H829.688H827.688V343.28H829.688ZM829.688 317.72H831.688C831.688 310.074 833.251 303.654 836.283 298.376L834.548 297.38L832.814 296.384C829.366 302.386 827.688 309.526 827.688 317.72H829.688ZM834.548 297.38L836.292 298.361C839.336 292.948 843.667 288.78 849.331 285.834L848.408 284.06L847.486 282.286C841.149 285.58 836.24 290.292 832.805 296.399L834.548 297.38ZM848.408 284.06L849.331 285.834C854.993 282.89 861.744 281.38 869.648 281.38V279.38V277.38C861.233 277.38 853.824 278.99 847.486 282.286L848.408 284.06ZM869.648 279.38V281.38C877.553 281.38 884.304 282.89 889.966 285.834L890.888 284.06L891.811 282.286C885.473 278.99 878.064 277.38 869.648 277.38V279.38ZM890.888 284.06L889.966 285.834C895.629 288.78 899.96 292.948 903.005 298.361L904.748 297.38L906.492 296.399C903.056 290.292 898.147 285.58 891.811 282.286L890.888 284.06ZM904.748 297.38L903.014 298.376C906.046 303.654 907.608 310.074 907.608 317.72H909.608H911.608C911.608 309.526 909.931 302.386 906.483 296.384L904.748 297.38ZM909.608 317.72H907.608V343.28H909.608H911.608V317.72H909.608ZM909.608 343.28H907.608C907.608 350.799 906.049 357.229 903.005 362.639L904.748 363.62L906.492 364.601C909.928 358.491 911.608 351.361 911.608 343.28H909.608ZM904.748 363.62L903.005 362.639C899.96 368.052 895.629 372.22 889.966 375.166L890.888 376.94L891.811 378.714C898.147 375.42 903.056 370.708 906.492 364.601L904.748 363.62ZM890.888 376.94L889.966 375.166C884.304 378.11 877.553 379.62 869.648 379.62V381.62V383.62C878.064 383.62 885.473 382.01 891.811 378.714L890.888 376.94ZM869.648 364.52V366.52C876.615 366.52 882.286 364.611 886.363 360.534L884.948 359.12L883.534 357.706C880.411 360.829 875.882 362.52 869.648 362.52V364.52ZM884.948 359.12L886.386 360.511C890.451 356.31 892.348 350.467 892.348 343.28H890.348H888.348C888.348 349.773 886.646 354.49 883.511 357.729L884.948 359.12ZM890.348 343.28H892.348V317.72H890.348H888.348V343.28H890.348ZM890.348 317.72H892.348C892.348 310.429 890.458 304.562 886.363 300.466L884.948 301.88L883.534 303.294C886.638 306.398 888.348 311.091 888.348 317.72H890.348ZM884.948 301.88L886.363 300.466C882.286 296.389 876.615 294.48 869.648 294.48V296.48V298.48C875.882 298.48 880.411 300.171 883.534 303.294L884.948 301.88ZM869.648 296.48V294.48C862.787 294.48 857.139 296.396 852.958 300.443L854.348 301.88L855.739 303.317C858.998 300.164 863.55 298.48 869.648 298.48V296.48ZM854.348 301.88L852.934 300.466C848.838 304.562 846.948 310.429 846.948 317.72H848.948H850.948C850.948 311.091 852.658 306.398 855.763 303.294L854.348 301.88ZM848.948 317.72H846.948V343.28H848.948H850.948V317.72H848.948ZM848.948 343.28H846.948C846.948 350.467 848.846 356.31 852.911 360.511L854.348 359.12L855.786 357.729C852.651 354.49 850.948 349.773 850.948 343.28H848.948ZM854.348 359.12L852.958 360.557C857.139 364.604 862.787 366.52 869.648 366.52V364.52V362.52C863.55 362.52 858.998 360.836 855.739 357.683L854.348 359.12Z" fill="#7E00D8"/>
</svg>