<svg width="1200" height="630" viewBox="0 0 1200 630" fill="none" xmlns="http://www.w3.org/2000/svg">
<rect width="1200" height="630" fill="#7E00D8"/>
<path fill-rule="evenodd" clip-rule="evenodd" d="M321.274 393.769C301.62 393.769 284.637 382.334 276.615 365.754V367.055C276.615 392.684 297.393 413.462 323.022 413.462C327.219 413.462 331.242 411.796 334.208 408.828L335.096 407.942C340.864 402.174 350.213 402.174 355.981 407.942C361.749 413.71 361.749 423.06 355.981 428.827L355.095 429.716C346.588 438.221 335.052 443 323.022 443C290.572 443 262.875 422.648 252 394.011C241.125 422.648 213.428 443 180.978 443C168.948 443 157.411 438.221 148.905 429.716L148.018 428.827C142.25 423.06 142.25 413.71 148.018 407.942C153.786 402.174 163.137 402.174 168.905 407.942L169.792 408.828C172.759 411.796 176.782 413.462 180.978 413.462C206.607 413.462 227.385 392.684 227.385 367.055V365.754C219.363 382.334 202.381 393.769 182.727 393.769H178.154C148.246 393.769 124 369.524 124 339.615C124 331.459 130.612 324.846 138.769 324.846C146.926 324.846 153.538 331.459 153.538 339.615C153.538 353.21 164.559 364.231 178.154 364.231H182.727C193.796 364.231 202.769 355.258 202.769 344.189C202.769 338.873 200.658 333.775 196.899 330.017L186.063 319.181C171.542 304.66 163.385 284.965 163.385 264.43C163.385 221.667 198.051 187 240.814 187H263.186C305.949 187 340.615 221.667 340.615 264.43C340.615 284.965 332.457 304.66 317.936 319.181L307.101 330.017C303.342 333.775 301.231 338.873 301.231 344.189C301.231 355.258 310.204 364.231 321.274 364.231H325.846C339.442 364.231 350.462 353.21 350.462 339.615C350.462 331.459 357.074 324.846 365.231 324.846C373.387 324.846 380 331.459 380 339.615C380 369.524 355.755 393.769 325.846 393.769H321.274ZM232.308 280.538C232.308 272.382 225.695 265.769 217.538 265.769C209.382 265.769 202.769 272.382 202.769 280.538C202.769 288.695 209.382 295.308 217.538 295.308C225.695 295.308 232.308 288.695 232.308 280.538ZM301.231 280.538C301.231 272.382 294.618 265.769 286.462 265.769C278.305 265.769 271.692 272.382 271.692 280.538C271.692 288.695 278.305 295.308 286.462 295.308C294.618 295.308 301.231 288.695 301.231 280.538Z" fill="white"/>
<path d="M442.58 380V248.6H467.06L505.4 357.86C505.16 354.38 504.86 350.24 504.5 345.44C504.14 340.64 503.84 335.66 503.6 330.5C503.48 325.34 503.42 320.66 503.42 316.46V248.6H521.42V380H496.94L458.78 270.74C459.02 273.86 459.26 277.76 459.5 282.44C459.86 287.12 460.1 291.98 460.22 297.02C460.46 302.06 460.58 306.74 460.58 311.06V380H442.58ZM543.67 380L578.41 328.88L545.83 281H568.15L585.61 308.36C586.45 309.8 587.29 311.36 588.13 313.04C588.97 314.6 589.63 315.92 590.11 317C590.47 315.92 591.07 314.6 591.91 313.04C592.75 311.36 593.59 309.8 594.43 308.36L611.89 281H634.21L601.63 329.06L636.19 380H613.87L594.61 350.3C593.77 348.86 592.93 347.24 592.09 345.44C591.25 343.64 590.59 342.2 590.11 341.12C589.63 342.2 588.91 343.64 587.95 345.44C587.11 347.24 586.21 348.86 585.25 350.3L565.81 380H543.67ZM697.859 381.8C689.699 381.8 682.619 380.3 676.619 377.3C670.739 374.18 666.179 369.74 662.939 363.98C659.819 358.1 658.259 351.26 658.259 343.46V285.14C658.259 277.22 659.819 270.38 662.939 264.62C666.179 258.86 670.739 254.48 676.619 251.48C682.619 248.36 689.699 246.8 697.859 246.8C706.019 246.8 713.039 248.36 718.919 251.48C724.919 254.48 729.479 258.86 732.599 264.62C735.839 270.38 737.459 277.16 737.459 284.96V343.46C737.459 351.26 735.839 358.1 732.599 363.98C729.479 369.74 724.919 374.18 718.919 377.3C713.039 380.3 706.019 381.8 697.859 381.8ZM697.859 364.52C704.459 364.52 709.439 362.72 712.799 359.12C716.279 355.4 718.019 350.18 718.019 343.46V285.14C718.019 278.3 716.279 273.08 712.799 269.48C709.439 265.88 704.459 264.08 697.859 264.08C691.379 264.08 686.399 265.88 682.919 269.48C679.439 273.08 677.699 278.3 677.699 285.14V343.46C677.699 350.18 679.439 355.4 682.919 359.12C686.399 362.72 691.379 364.52 697.859 364.52ZM806.509 381.8C798.349 381.8 791.149 380.3 784.909 377.3C778.789 374.18 774.049 369.74 770.689 363.98C767.449 358.1 765.829 351.26 765.829 343.46V317.54C765.829 309.62 767.449 302.78 770.689 297.02C774.049 291.26 778.789 286.88 784.909 283.88C791.149 280.76 798.349 279.2 806.509 279.2C818.389 279.2 827.929 282.32 835.129 288.56C842.329 294.8 846.109 303.32 846.469 314.12H827.029C826.669 308.48 824.689 304.1 821.089 300.98C817.489 297.86 812.629 296.3 806.509 296.3C799.909 296.3 794.689 298.16 790.849 301.88C787.009 305.48 785.089 310.64 785.089 317.36V343.46C785.089 350.18 787.009 355.4 790.849 359.12C794.689 362.84 799.909 364.7 806.509 364.7C812.629 364.7 817.489 363.14 821.089 360.02C824.689 356.9 826.669 352.52 827.029 346.88H846.469C846.109 357.68 842.329 366.2 835.129 372.44C827.929 378.68 818.389 381.8 806.509 381.8ZM924.519 380C915.519 380 908.499 377.54 903.459 372.62C898.419 367.7 895.899 360.86 895.899 352.1V298.64H868.539V281H895.899V253.1H915.339V281H954.039V298.64H915.339V352.1C915.339 358.94 918.639 362.36 925.239 362.36H952.239V380H924.519ZM1021.65 381.62C1013.49 381.62 1006.41 380.06 1000.41 376.94C994.408 373.82 989.788 369.38 986.548 363.62C983.308 357.86 981.688 351.08 981.688 343.28V317.72C981.688 309.8 983.308 303.02 986.548 297.38C989.788 291.62 994.408 287.18 1000.41 284.06C1006.41 280.94 1013.49 279.38 1021.65 279.38C1029.81 279.38 1036.89 280.94 1042.89 284.06C1048.89 287.18 1053.51 291.62 1056.75 297.38C1059.99 303.02 1061.61 309.8 1061.61 317.72V343.28C1061.61 351.08 1059.99 357.86 1056.75 363.62C1053.51 369.38 1048.89 373.82 1042.89 376.94C1036.89 380.06 1029.81 381.62 1021.65 381.62ZM1021.65 364.52C1028.25 364.52 1033.35 362.72 1036.95 359.12C1040.55 355.4 1042.35 350.12 1042.35 343.28V317.72C1042.35 310.76 1040.55 305.48 1036.95 301.88C1033.35 298.28 1028.25 296.48 1021.65 296.48C1015.17 296.48 1010.07 298.28 1006.35 301.88C1002.75 305.48 1000.95 310.76 1000.95 317.72V343.28C1000.95 350.12 1002.75 355.4 1006.35 359.12C1010.07 362.72 1015.17 364.52 1021.65 364.52Z" fill="white"/>
</svg>
